<?xml version='1.0' encoding='utf-8'?>
<!DOCTYPE svg PUBLIC '-//W3C//DTD SVG 1.1//EN' 'http://www.w3.org/Graphics/SVG/1.1/DTD/svg11.dtd'>
<!-- Uploaded to: SVG Repo, www.svgrepo.com, Generator: SVG Repo Mixer Tools -->
<svg fill="#000000" height="800px" width="800px" version="1.1" xmlns="http://www.w3.org/2000/svg" viewBox="0 0 512 512" xmlns:xlink="http://www.w3.org/1999/xlink" enable-background="new 0 0 512 512">
  <g>
    <g>
      <circle cx="266.2" cy="95.2" r="22.1"/>
      <circle cx="355.2" cy="33.1" r="22.1"/>
      <circle cx="333" cy="181.2" r="22.1"/>
      <circle cx="326.4" cy="414.8" r="22.1"/>
      <path d="M480.6,112.4c-11.3,0-20.4,9.1-20.4,20.4v327.4H51.8V132.8c0-11.3-9.1-20.4-20.4-20.4c-11.3,0-20.4,9.1-20.4,20.4v347.8    c0,11.3,9.1,20.4,20.4,20.4h449.2c11.3,0,20.4-9.1,20.4-20.4V132.8C501,121.5,491.9,112.4,480.6,112.4z"/>
      <path d="m232.1,385.1c38.5,0 74.8-16.9 104-48.1l29.8,30c10.5,10.7 24.9,4.1 28.9,0.1 8-7.9 8-20.9 0.1-28.9l-31.3-31.5 31.3-31.5c7.9-8 7.9-20.9-0.1-28.9-8-8-20.9-7.9-28.9,0.1l-29.8,30c-29.3-31.2-65.5-48.1-104-48.1-45.5,0-87.8,23.5-119.2,66.3-5.3,7.2-5.3,17 0,24.2 31.4,42.7 73.7,66.3 119.2,66.3zm0-116c27.8,0 54.5,13.2 76.4,37.5-21.9,24.3-48.6,37.5-76.4,37.5-27.8,0-54.5-13.2-76.4-37.5 21.8-24.2 48.5-37.5 76.4-37.5z"/>
      <circle cx="145.3" cy="159.1" r="22.1"/>
    </g>
  </g>
</svg>