<svg xmlns="http://www.w3.org/2000/svg" version="1.1" xmlns:xlink="http://www.w3.org/1999/xlink" xmlns:svgjs="http://svgjs.dev/svgjs" width="2000" height="1991" viewBox="0 0 2000 1991"><g transform="matrix(1,0,0,1,-2.070372906230773,-3.2112903225806804)"><svg viewBox="0 0 249 248" data-background-color="#ffffff" preserveAspectRatio="xMidYMid meet" height="1991" width="2000" xmlns="http://www.w3.org/2000/svg" xmlns:xlink="http://www.w3.org/1999/xlink"><g id="tight-bounds" transform="matrix(1,0,0,1,0.25776142682573777,0.4000000000000057)"><svg viewBox="0 0 248.48447714634852 247.2" height="247.2" width="248.48447714634852"><g><svg viewBox="0 0 395.52 393.4754602091922" height="247.2" width="248.48447714634852"><g transform="matrix(1,0,0,1,0,299.7482325136387)"><svg viewBox="0 0 395.52 93.7272276955535" height="93.7272276955535" width="395.52"><g id="textblocktransform"><svg viewBox="0 0 395.52 93.7272276955535" height="93.7272276955535" width="395.52" id="textblock"><g><svg viewBox="0 0 395.52 93.7272276955535" height="93.7272276955535" width="395.52"><g transform="matrix(1,0,0,1,0,0)"><svg width="395.52" viewBox="1.45 -31.402441427072 190.73000000000002 45.202441427072" height="93.7272276955535" data-palette-color="#010c80"><path d="M8.1 0.65L8.1 0.65Q5.1 0.65 3.28-1.23 1.45-3.1 1.45-6.6L1.45-6.6Q1.45-9.1 2.43-11.58 3.4-14.05 5.25-16.05 7.1-18.05 9.7-19.25 12.3-20.45 15.55-20.45L15.55-20.45Q18.55-20.45 20.68-19.43 22.8-18.4 22.8-16.65L22.8-16.65Q22.8-16.2 22.7-15.48 22.6-14.75 22.45-14.3L22.45-14.3Q22.3-13.9 22.03-13.58 21.75-13.25 21.3-13.25L21.3-13.25Q21.1-13.25 20.55-13.4L20.55-13.4Q20.35-12.35 20.25-11.35 20.15-10.35 20.15-9.35L20.15-9.35Q20.15-7.45 20.73-5.98 21.3-4.5 23-4.15L23-4.15Q23.45-4.05 23.73-3.85 24-3.65 24-3L24-3Q24-2.45 23.73-1.6 23.45-0.75 22.68-0.08 21.9 0.6 20.45 0.6L20.45 0.6Q18.5 0.6 17.45-0.83 16.4-2.25 16.4-4.9L16.4-4.9Q15.05-2.45 12.98-0.9 10.9 0.65 8.1 0.65ZM9.7-4.55L9.7-4.55Q11.7-4.55 13.23-5.8 14.75-7.05 15.6-8.95L15.6-8.95Q16.15-10.15 16.45-11.58 16.75-13 16.85-14.4L16.85-14.4Q16-14.8 14.9-15.05 13.8-15.3 12.6-15.3L12.6-15.3Q9.55-15.3 7.58-13.5 5.6-11.7 5.6-9L5.6-9Q5.6-7 6.7-5.78 7.8-4.55 9.7-4.55ZM41.55 13.8L41.55 13.8Q40.15 13.8 39.32 13 38.5 12.2 38.45 10L38.45 10Q38.4 7.7 39.12 3.98 39.85 0.25 40.7-3.75L40.7-3.75Q39.3-1.75 37.52-0.55 35.75 0.65 33.35 0.65L33.35 0.65Q30.35 0.65 28.62-1.4 26.9-3.45 26.9-7.15L26.9-7.15Q26.9-9.6 27.65-11.95 28.4-14.3 29.9-16.23 31.4-18.15 33.65-19.3 35.9-20.45 38.85-20.45L38.85-20.45Q40.7-20.45 42.27-19.95 43.85-19.45 44.85-18.6L44.85-18.6Q45.7-17.9 45.9-17.3 46.1-16.7 46.1-16L46.1-16Q46.1-14.55 45.82-12.45 45.55-10.35 45.15-8.3 44.75-6.25 44.45-4.8L44.45-4.8Q44-2.45 43.72 0.18 43.45 2.8 43.45 5L43.45 5Q43.45 6.6 43.75 7.68 44.05 8.75 45.25 9.4L45.25 9.4Q45.55 9.55 45.77 9.73 46 9.9 46 10.25L46 10.25Q46 10.65 45.6 11.53 45.2 12.4 44.25 13.1 43.3 13.8 41.55 13.8ZM34.9-4.7L34.9-4.7Q36.3-4.7 37.7-5.58 39.1-6.45 40.2-8L40.2-8Q40.95-9.15 41.5-10.6 42.05-12.05 42.15-13.75L42.15-13.75Q41.35-14.15 39.97-14.58 38.6-15 37-15L37-15Q34.05-15 32.42-13.38 30.8-11.75 30.8-9.4L30.8-9.4Q30.8-7.3 32-6 33.2-4.7 34.9-4.7ZM56.6 0.65L56.6 0.65Q54.1 0.65 52.72-0.8 51.35-2.25 51.35-5L51.35-5Q51.35-6.95 51.9-9L51.9-9Q52.15-9.85 52.3-10.7 52.45-11.55 52.45-12.4L52.45-12.4Q52.45-14.6 51.1-15.25L51.1-15.25Q49.8-15.95 49.8-16.75L49.8-16.75Q49.8-17.55 50.47-18.35 51.15-19.15 52.15-19.68 53.15-20.2 54.15-20.2L54.15-20.2Q57-20.2 57-15.55L57-15.55Q57-14.05 56.77-12.78 56.55-11.5 56.25-10.35L56.25-10.35Q56.05-9.55 55.92-8.75 55.8-7.95 55.8-7.35L55.8-7.35Q55.8-4.85 58.25-4.85L58.25-4.85Q60.55-4.85 62.55-7.3 64.55-9.75 65.85-14.15L65.85-14.15 65.8-15.1Q65.7-17.6 66.67-18.9 67.65-20.2 69.55-20.2L69.55-20.2Q71.2-20.2 71.2-19.15L71.2-19.15Q71.2-18.8 71.07-18.25 70.95-17.7 70.7-16.95L70.7-16.95Q70.2-15.1 69.85-13.03 69.5-10.95 69.5-9.2L69.5-9.2Q69.5-7.25 70.1-5.98 70.7-4.7 72.35-4.25L72.35-4.25Q72.8-4.2 73.07-3.98 73.35-3.75 73.35-3.05L73.35-3.05Q73.35-1.85 72.35-0.7 71.35 0.45 69.45 0.45L69.45 0.45Q65.8 0.45 65.8-4.7L65.8-4.7Q65.8-5.6 65.95-7.4L65.95-7.4 65.85-7.45Q62.7 0.65 56.6 0.65ZM82.39 0.65L82.39 0.65Q79.39 0.65 77.57-1.23 75.74-3.1 75.74-6.6L75.74-6.6Q75.74-9.1 76.72-11.58 77.69-14.05 79.54-16.05 81.39-18.05 83.99-19.25 86.59-20.45 89.84-20.45L89.84-20.45Q92.84-20.45 94.97-19.43 97.09-18.4 97.09-16.65L97.09-16.65Q97.09-16.2 96.99-15.48 96.89-14.75 96.74-14.3L96.74-14.3Q96.59-13.9 96.32-13.58 96.04-13.25 95.59-13.25L95.59-13.25Q95.39-13.25 94.84-13.4L94.84-13.4Q94.64-12.35 94.54-11.35 94.44-10.35 94.44-9.35L94.44-9.35Q94.44-7.45 95.02-5.98 95.59-4.5 97.29-4.15L97.29-4.15Q97.74-4.05 98.02-3.85 98.29-3.65 98.29-3L98.29-3Q98.29-2.45 98.02-1.6 97.74-0.75 96.97-0.08 96.19 0.6 94.74 0.6L94.74 0.6Q92.79 0.6 91.74-0.83 90.69-2.25 90.69-4.9L90.69-4.9Q89.34-2.45 87.27-0.9 85.19 0.65 82.39 0.65ZM83.99-4.55L83.99-4.55Q85.99-4.55 87.52-5.8 89.04-7.05 89.89-8.95L89.89-8.95Q90.44-10.15 90.74-11.58 91.04-13 91.14-14.4L91.14-14.4Q90.29-14.8 89.19-15.05 88.09-15.3 86.89-15.3L86.89-15.3Q83.84-15.3 81.87-13.5 79.89-11.7 79.89-9L79.89-9Q79.89-7 80.99-5.78 82.09-4.55 83.99-4.55ZM104.39 0.55L104.39 0.55Q103.59 0.55 103.12 0.28 102.64 0 102.79-0.65L102.79-0.65Q103.34-2.8 103.72-5.03 104.09-7.25 104.09-9.3L104.09-9.3Q104.09-11.95 103.77-13.18 103.44-14.4 102.89-14.88 102.34-15.35 101.54-15.6L101.54-15.6Q101.19-15.75 100.92-16 100.64-16.25 100.64-16.7L100.64-16.7Q100.64-17.4 101.19-18.25 101.74-19.1 102.74-19.73 103.74-20.35 105.04-20.35L105.04-20.35Q106.74-20.35 107.42-19.18 108.09-18 108.09-16.1L108.09-16.1Q108.99-18.1 110.32-19.28 111.64-20.45 113.64-20.45L113.64-20.45Q114.99-20.45 115.89-19.85 116.79-19.25 116.79-17.9L116.79-17.9Q116.79-16.55 115.92-15.38 115.04-14.2 114.14-14.2L114.14-14.2Q113.99-14.2 113.79-14.25 113.59-14.3 113.44-14.5L113.44-14.5Q112.79-15.3 111.84-15.3L111.84-15.3Q110.39-15.3 109.29-13.4 108.19-11.5 108.09-8.15L108.09-8.15Q108.14-6.9 108.17-5.6 108.19-4.3 108.19-3.7L108.19-3.7Q108.19-1.85 107.17-0.65 106.14 0.55 104.39 0.55ZM123.04-24.85L123.04-24.85Q121.64-24.9 120.79-25.7 119.94-26.5 119.94-27.95L119.94-27.95Q119.99-29.5 120.99-30.48 121.99-31.45 123.54-31.4L123.54-31.4Q124.99-31.35 125.81-30.55 126.64-29.75 126.59-28.3L126.59-28.3Q126.54-26.8 125.59-25.83 124.64-24.85 123.04-24.85ZM123.09 0.5L123.09 0.5Q121.59 0.5 120.74-0.33 119.89-1.15 119.89-3.15L119.89-3.15Q119.89-4.3 120.11-5.4 120.34-6.5 120.64-7.55L120.64-7.55Q120.99-8.65 121.21-9.8 121.44-10.95 121.44-12.25L121.44-12.25Q121.44-13.15 121.19-13.98 120.94-14.8 120.09-15.2L120.09-15.2Q119.44-15.55 118.96-15.93 118.49-16.3 118.49-16.9L118.49-16.9Q118.49-17.6 119.14-18.4 119.79-19.2 120.86-19.78 121.94-20.35 123.09-20.35L123.09-20.35Q124.34-20.35 124.91-19.7 125.49-19.05 125.69-18.05 125.89-17.05 125.89-16L125.89-16Q125.89-14.4 125.64-12.88 125.39-11.35 125.14-10.05L125.14-10.05Q124.94-9.1 124.84-8.3 124.74-7.5 124.74-6.8L124.74-6.8Q124.74-5.55 125.34-4.93 125.94-4.3 127.04-3.75L127.04-3.75Q127.49-3.5 127.49-3L127.49-3Q127.49-2.6 127.09-1.75 126.69-0.9 125.71-0.2 124.74 0.5 123.09 0.5ZM137.49 0.65L137.49 0.65Q134.99 0.65 133.61-0.8 132.24-2.25 132.24-5L132.24-5Q132.24-6.95 132.79-9L132.79-9Q133.04-9.85 133.19-10.7 133.34-11.55 133.34-12.4L133.34-12.4Q133.34-14.6 131.99-15.25L131.99-15.25Q130.69-15.95 130.69-16.75L130.69-16.75Q130.69-17.55 131.36-18.35 132.04-19.15 133.04-19.68 134.04-20.2 135.04-20.2L135.04-20.2Q137.89-20.2 137.89-15.55L137.89-15.55Q137.89-14.05 137.66-12.78 137.44-11.5 137.14-10.35L137.14-10.35Q136.94-9.55 136.81-8.75 136.69-7.95 136.69-7.35L136.69-7.35Q136.69-4.85 139.14-4.85L139.14-4.85Q141.44-4.85 143.44-7.3 145.44-9.75 146.74-14.15L146.74-14.15 146.69-15.1Q146.59-17.6 147.56-18.9 148.54-20.2 150.44-20.2L150.44-20.2Q152.09-20.2 152.09-19.15L152.09-19.15Q152.09-18.8 151.96-18.25 151.84-17.7 151.59-16.95L151.59-16.95Q151.09-15.1 150.74-13.03 150.39-10.95 150.39-9.2L150.39-9.2Q150.39-7.25 150.99-5.98 151.59-4.7 153.24-4.25L153.24-4.25Q153.69-4.2 153.96-3.98 154.24-3.75 154.24-3.05L154.24-3.05Q154.24-1.85 153.24-0.7 152.24 0.45 150.34 0.45L150.34 0.45Q146.69 0.45 146.69-4.7L146.69-4.7Q146.69-5.6 146.84-7.4L146.84-7.4 146.74-7.45Q143.59 0.65 137.49 0.65ZM159.88 0.55L159.88 0.55Q158.08 0.55 158.28-0.65L158.28-0.65Q158.83-2.8 159.21-5.03 159.58-7.25 159.58-9.3L159.58-9.3Q159.58-11.95 159.26-13.18 158.93-14.4 158.38-14.88 157.83-15.35 157.03-15.6L157.03-15.6Q156.68-15.75 156.41-16 156.13-16.25 156.13-16.7L156.13-16.7Q156.13-17.4 156.68-18.25 157.23-19.1 158.26-19.73 159.28-20.35 160.58-20.35L160.58-20.35Q162.28-20.35 162.93-19.18 163.58-18 163.58-16.1L163.58-16.1Q163.58-14.85 163.33-13.3 163.08-11.75 162.83-10.5L162.83-10.5 162.93-10.45Q163.73-13.1 164.91-15.35 166.08-17.6 167.76-19 169.43-20.4 171.63-20.4L171.63-20.4Q173.88-20.4 175.18-18.88 176.48-17.35 176.48-14.4L176.48-14.4 176.48-13.3Q177.93-16.35 180.01-18.4 182.08-20.45 185.03-20.45L185.03-20.45Q187.43-20.45 188.78-18.85 190.13-17.25 190.13-14.85L190.13-14.85Q190.13-13.9 189.93-13.03 189.73-12.15 189.48-11.3L189.48-11.3Q189.28-10.5 189.08-9.65 188.88-8.8 188.88-7.95L188.88-7.95Q188.88-4.95 191.43-4.05L191.43-4.05Q191.78-3.9 191.98-3.73 192.18-3.55 192.18-3.1L192.18-3.1Q192.18-2.65 191.91-1.8 191.63-0.95 190.83-0.23 190.03 0.5 188.53 0.5L188.53 0.5Q186.58 0.5 185.53-0.93 184.48-2.35 184.48-4.55L184.48-4.55Q184.48-5.65 184.68-6.85 184.88-8.05 185.18-9.15L185.18-9.15Q185.43-10.15 185.61-11.05 185.78-11.95 185.78-12.6L185.78-12.6Q185.78-13.8 185.21-14.35 184.63-14.9 183.68-14.9L183.68-14.9Q182.08-14.9 180.81-13.9 179.53-12.9 178.56-11.3 177.58-9.7 176.88-7.8L176.88-7.8Q176.93-7.35 176.96-6.63 176.98-5.9 176.98-5.35L176.98-5.35Q176.98-4.4 176.86-3.35 176.73-2.3 176.38-1.6L176.38-1.6Q175.98-0.65 175.21-0.05 174.43 0.55 173.13 0.55L173.13 0.55Q172.58 0.55 172.08 0.33 171.58 0.1 171.58-0.4L171.58-0.4Q171.58-0.6 171.88-2.18 172.18-3.75 172.48-6.05 172.78-8.35 172.78-10.55L172.78-10.55Q172.78-12.95 172.28-13.88 171.78-14.8 170.78-14.8L170.78-14.8Q169.53-14.8 168.41-13.75 167.28-12.7 166.36-11.05 165.43-9.4 164.76-7.6 164.08-5.8 163.68-4.25L163.68-4.25 163.68-3.7Q163.68-1.85 162.66-0.65 161.63 0.55 159.88 0.55Z" opacity="1" transform="matrix(1,0,0,1,0,0)" fill="#010c80" class="wordmark-text-0" data-fill-palette-color="primary" id="text-0"></path></svg></g></svg></g></svg></g></svg></g><g transform="matrix(1,0,0,1,75.54432,0)"><svg viewBox="0 0 244.43135999999998 244.43135999999998" height="244.43135999999998" width="244.43135999999998"><g><svg viewBox="0 0 244.43135999999998 244.43135999999998" height="244.43135999999998" width="244.43135999999998"><g transform="matrix(1,0,0,1,65.49204578772624,64.60265593644992)"><svg viewBox="0 0 113.4472684245475 115.22604812710014" height="115.22604812710014" width="113.4472684245475"><g><svg xmlns="http://www.w3.org/2000/svg" xmlns:xlink="http://www.w3.org/1999/xlink" version="1.1" x="0" y="0" viewBox="5.695237639095604 5 88.61039836688873 89.9997520308331" enable-background="new 0 0 100 100" xml:space="preserve" height="115.22604812710014" width="113.4472684245475" class="icon-dxe-0" data-fill-palette-color="accent" id="dxe-0"><g fill="#0023ff" data-fill-palette-color="accent"><path fill="#0023ff" d="M90.902 89.48C82.884 84.359 85.544 78.28 85.544 78.28 93.116 69.82 93.459 57.707 93.459 57.707 92.569 34.326 71.935 27.047 71.935 27.047 69.042 23.26 70.816 10.963 70.816 10.963 73.708 5.616 70.601 5 70.601 5 53.454 12.795 48.554 23.482 48.554 23.482 39.203 23.705 26.625 28.369 26.625 28.369 2.128 40.174 12.257 58.891 12.257 58.891S2.645 71.587 6.688 74.255C12.488 78.082 20.942 66.015 20.942 66.015 30.277 67.689 35.192 63.567 35.192 63.567 42.318 78.041 57.016 74.48 57.016 74.48S61.53 73.87 55.964 69.637C50.398 65.407 48.66 60.387 48.66 60.387 52.444 60.834 70.823 58.222 70.823 58.222 77.947 57.999 81.161 61.724 81.161 61.724 88.513 73.304 73.25 82.662 73.25 82.662 55.88 83.107 59.909 86.28 59.909 86.28 69.711 95.855 78.169 87.838 78.169 87.838S83.738 97.191 91.086 94.52C98.436 91.846 90.902 89.48 90.902 89.48M25.53 55.638A3.651 3.651 0 1 1 25.529 48.335 3.651 3.651 0 0 1 25.53 55.638" data-fill-palette-color="accent"></path></g></svg></g></svg></g><g id="text-0"><path d="M24.801 89.292v0c-0.562 1.589-1.511 2.69-2.845 3.305-1.336 0.621-2.932 0.604-4.786-0.052v0c-1.329-0.471-2.557-1.197-3.683-2.18-1.126-0.982-2.044-2.15-2.755-3.503-0.717-1.356-1.148-2.836-1.295-4.442-0.149-1.6 0.082-3.262 0.693-4.987v0c0.562-1.589 1.314-2.847 2.256-3.776 0.938-0.938 1.87-1.242 2.797-0.914v0c0.24 0.085 0.545 0.222 0.916 0.411 0.364 0.187 0.651 0.366 0.862 0.535v0c0.18 0.151 0.332 0.329 0.456 0.534 0.116 0.209 0.131 0.433 0.047 0.673v0c-0.037 0.104-0.146 0.288-0.327 0.552v0c0.521 0.301 1.038 0.572 1.551 0.812 0.505 0.244 1.023 0.461 1.555 0.649v0c1.005 0.356 1.954 0.52 2.846 0.493 0.886-0.029 1.582-0.461 2.089-1.296v0c0.137-0.222 0.283-0.389 0.44-0.501 0.161-0.104 0.413-0.095 0.757 0.027v0c0.292 0.103 0.636 0.305 1.033 0.606 0.401 0.31 0.708 0.732 0.919 1.267 0.21 0.541 0.179 1.194-0.091 1.96v0c-0.365 1.031-1.022 1.692-1.972 1.983-0.956 0.289-2.134 0.186-3.535-0.31v0c1.044 1.172 1.78 2.454 2.207 3.846 0.436 1.387 0.391 2.823-0.135 4.308zM21.118 86.555v0c0.374-1.057 0.374-2.108 0-3.153-0.377-1.038-0.987-1.962-1.832-2.771v0c-0.532-0.517-1.15-0.987-1.853-1.412-0.695-0.428-1.406-0.8-2.133-1.116v0c-0.368 0.38-0.722 0.835-1.063 1.364-0.336 0.538-0.617 1.124-0.842 1.76v0c-0.574 1.621-0.569 3.122 0.015 4.503 0.584 1.381 1.592 2.326 3.024 2.833v0c1.057 0.374 2.012 0.387 2.865 0.04 0.855-0.354 1.462-1.037 1.819-2.048z" fill="#0023ff" data-fill-palette-color="accent"></path><path d="M55.03 58.689v0c-0.496 0.607-1.068 0.949-1.715 1.024-0.638 0.074-1.445-0.27-2.421-1.032v0c-1.019-0.797-2.21-2.014-3.573-3.65-1.368-1.641-2.768-3.358-4.2-5.149v0c0.368 1.322 0.498 2.582 0.389 3.781-0.109 1.199-0.59 2.32-1.443 3.364v0c-1.066 1.305-2.351 1.97-3.853 1.995-1.508 0.02-3.067-0.627-4.676-1.941v0c-1.065-0.87-1.977-1.885-2.734-3.046-0.757-1.16-1.289-2.412-1.596-3.754-0.301-1.338-0.304-2.699-0.009-4.084 0.3-1.389 0.974-2.726 2.023-4.009v0c0.661-0.81 1.38-1.466 2.155-1.97 0.78-0.509 1.532-0.832 2.256-0.968v0c0.604-0.12 1.071-0.115 1.402 0.012 0.335 0.123 0.657 0.31 0.966 0.563v0c0.629 0.513 1.351 1.206 2.167 2.076 0.815 0.861 1.599 1.745 2.35 2.652 0.746 0.902 1.384 1.676 1.913 2.322v0c0.862 1.032 1.815 2.073 2.859 3.121 1.045 1.058 2.047 1.979 3.007 2.762v0c0.693 0.566 1.328 0.973 1.905 1.223 0.573 0.255 1.214 0.237 1.923-0.055v0c0.173-0.081 0.338-0.137 0.496-0.167 0.157-0.04 0.313 0.003 0.468 0.129v0c0.17 0.139 0.376 0.453 0.615 0.942 0.235 0.485 0.336 1.056 0.305 1.715-0.03 0.668-0.357 1.383-0.979 2.144zM39.404 53.16v0c0.496-0.607 0.8-1.371 0.913-2.292 0.122-0.922 0.041-1.898-0.244-2.93v0c-0.235-0.734-0.569-1.477-1.003-2.231-0.438-0.757-1.01-1.46-1.715-2.107v0c-0.453 0.207-1.019 0.535-1.697 0.985-0.674 0.444-1.296 1.015-1.866 1.714v0c-1.049 1.284-1.508 2.569-1.378 3.856 0.134 1.282 0.713 2.34 1.736 3.176v0c0.916 0.748 1.87 1.092 2.861 1.031 0.991-0.061 1.789-0.462 2.393-1.202z" fill="#0023ff" data-fill-palette-color="accent"></path><path d="M68.138 33.981v0c-1.213 0.705-2.36 0.902-3.44 0.591-1.077-0.32-2.005-1.15-2.783-2.487v0c-0.55-0.945-0.979-1.992-1.289-3.141v0c-0.123-0.485-0.265-0.956-0.426-1.411-0.171-0.458-0.375-0.892-0.614-1.302v0c-0.622-1.07-1.352-1.573-2.189-1.508v0c-0.833 0.031-1.364-0.15-1.592-0.542v0c-0.225-0.387-0.286-0.868-0.184-1.445 0.105-0.586 0.324-1.147 0.657-1.683 0.339-0.539 0.752-0.95 1.24-1.234v0c1.385-0.805 2.735-0.078 4.048 2.182v0c0.425 0.731 0.761 1.439 1.008 2.123 0.253 0.681 0.467 1.344 0.643 1.989v0c0.133 0.448 0.282 0.882 0.448 1.303 0.165 0.421 0.333 0.777 0.502 1.069v0c0.709 1.219 1.658 1.483 2.847 0.791v0c1.118-0.65 1.816-1.851 2.093-3.604 0.28-1.762 0.115-3.894-0.495-6.395v0l-0.441-0.675c-0.753-1.185-1.078-2.23-0.974-3.133 0.106-0.913 0.62-1.637 1.541-2.173v0c0.803-0.467 1.353-0.444 1.651 0.067v0c0.1 0.172 0.198 0.41 0.294 0.712 0.096 0.302 0.187 0.671 0.273 1.106v0c0.278 1.04 0.628 2.113 1.049 3.221 0.412 1.105 0.865 2.083 1.36 2.933v0c0.553 0.951 1.155 1.652 1.806 2.101 0.651 0.449 1.442 0.55 2.372 0.304v0c0.234-0.104 0.447-0.141 0.64-0.11 0.202 0.033 0.402 0.22 0.599 0.559v0c0.339 0.583 0.427 1.295 0.265 2.137-0.163 0.842-0.705 1.532-1.627 2.068v0c-1.772 1.03-3.386 0.294-4.841-2.21v0c-0.256-0.44-0.602-1.118-1.039-2.034v0l-0.092 0.006c0.754 4.828-0.349 8.103-3.31 9.825z" fill="#0023ff" data-fill-palette-color="accent"></path><path d="M102.462 20.434v0c-1.661 0.282-3.085-0.011-4.272-0.877-1.193-0.865-1.954-2.268-2.283-4.207v0c-0.236-1.39-0.198-2.816 0.112-4.278 0.31-1.462 0.884-2.832 1.721-4.111 0.836-1.286 1.919-2.383 3.251-3.293 1.325-0.908 2.89-1.515 4.693-1.821v0c1.661-0.282 3.127-0.237 4.397 0.134 1.275 0.363 1.995 1.029 2.16 1.999v0c0.043 0.251 0.071 0.584 0.086 1 0.014 0.409-0.002 0.747-0.048 1.013v0c-0.045 0.231-0.126 0.45-0.245 0.659-0.126 0.203-0.315 0.325-0.565 0.368v0c-0.109 0.018-0.322 0.013-0.641-0.017v0c-0.01 0.602 0.005 1.185 0.045 1.75 0.032 0.56 0.095 1.118 0.19 1.674v0c0.178 1.051 0.496 1.96 0.954 2.726 0.457 0.76 1.173 1.158 2.148 1.195v0c0.26 0.012 0.477 0.059 0.652 0.141 0.169 0.09 0.284 0.315 0.345 0.674v0c0.052 0.305 0.043 0.704-0.028 1.198-0.076 0.501-0.295 0.974-0.659 1.42-0.371 0.447-0.956 0.738-1.756 0.873v0c-1.078 0.183-1.976-0.07-2.693-0.758-0.718-0.695-1.201-1.774-1.449-3.239v0c-0.516 1.483-1.278 2.749-2.286 3.799-1 1.055-2.277 1.715-3.829 1.978zM103.061 15.885v0c1.105-0.187 2.023-0.699 2.754-1.534 0.724-0.834 1.234-1.817 1.531-2.949v0c0.193-0.716 0.303-1.485 0.331-2.306 0.036-0.815 0.015-1.618-0.063-2.406v0c-0.511-0.137-1.081-0.225-1.708-0.265-0.633-0.032-1.282 0.008-1.947 0.12v0c-1.695 0.287-3.005 1.022-3.928 2.204-0.923 1.182-1.257 2.522-1.003 4.021v0c0.187 1.105 0.64 1.946 1.359 2.522 0.725 0.575 1.617 0.772 2.674 0.593z" fill="#0023ff" data-fill-palette-color="accent"></path><path d="M136.476 19.229v0c-0.441-0.074-0.781-0.21-1.019-0.411-0.24-0.193-0.285-0.463-0.137-0.807v0c0.504-1.143 0.961-2.315 1.371-3.516 0.415-1.193 0.718-2.359 0.908-3.499v0c0.244-1.465 0.332-2.556 0.263-3.272-0.063-0.708-0.226-1.216-0.488-1.525-0.261-0.316-0.6-0.581-1.018-0.797v0c-0.183-0.114-0.341-0.252-0.475-0.414-0.125-0.167-0.167-0.377-0.125-0.628v0c0.065-0.387 0.288-0.789 0.672-1.206 0.385-0.424 0.884-0.763 1.497-1.016 0.607-0.254 1.274-0.321 2-0.199v0c0.936 0.156 1.54 0.592 1.811 1.306 0.265 0.714 0.309 1.596 0.134 2.648v0c0.68-1.023 1.444-1.799 2.292-2.327 0.841-0.529 1.815-0.701 2.921-0.517v0c0.753 0.126 1.35 0.396 1.789 0.811 0.447 0.416 0.608 0.997 0.483 1.744v0c-0.126 0.753-0.487 1.415-1.084 1.984-0.59 0.571-1.137 0.815-1.638 0.731v0c-0.081-0.014-0.178-0.044-0.289-0.09-0.104-0.045-0.187-0.132-0.249-0.261v0c-0.286-0.501-0.694-0.796-1.223-0.884v0c-0.801-0.134-1.594 0.275-2.38 1.224-0.786 0.95-1.361 2.35-1.725 4.199v0c-0.088 0.697-0.186 1.406-0.292 2.127-0.108 0.728-0.189 1.259-0.245 1.591v0c-0.171 1.024-0.597 1.822-1.277 2.392-0.681 0.57-1.506 0.774-2.477 0.612z" fill="#0023ff" data-fill-palette-color="accent"></path><path d="M176.087 8.989v0c-0.698-0.357-1.168-0.839-1.408-1.445-0.246-0.609-0.196-1.284 0.151-2.025v0c0.395-0.779 0.964-1.296 1.705-1.549 0.744-0.259 1.503-0.193 2.276 0.2v0c0.73 0.372 1.207 0.861 1.432 1.467 0.234 0.603 0.165 1.27-0.207 2v0c-0.387 0.745-0.937 1.255-1.65 1.528-0.716 0.265-1.482 0.206-2.299-0.176zM167.07 28.372v0c-0.766-0.359-1.265-0.85-1.497-1.475-0.241-0.622-0.123-1.44 0.352-2.456v0c0.274-0.586 0.599-1.132 0.974-1.64 0.381-0.505 0.771-0.991 1.171-1.457v0c0.443-0.476 0.858-0.981 1.244-1.513 0.393-0.53 0.743-1.125 1.053-1.786v0c0.216-0.461 0.356-0.931 0.42-1.409 0.071-0.476-0.064-0.918-0.403-1.328v0c-0.246-0.335-0.446-0.653-0.602-0.954-0.146-0.304-0.148-0.609-0.005-0.914v0c0.166-0.355 0.511-0.661 1.034-0.917 0.52-0.25 1.122-0.394 1.807-0.43 0.685-0.036 1.321 0.083 1.906 0.357v0c0.635 0.297 1.022 0.68 1.161 1.147 0.138 0.467 0.138 0.98-0.002 1.537-0.139 0.557-0.335 1.104-0.586 1.64v0c-0.379 0.81-0.813 1.575-1.302 2.295-0.495 0.717-0.96 1.377-1.394 1.979v0c-0.324 0.433-0.608 0.843-0.849 1.231-0.246 0.379-0.452 0.746-0.618 1.101v0c-0.297 0.635-0.369 1.187-0.216 1.653 0.157 0.461 0.449 0.962 0.879 1.505v0c0.172 0.232 0.198 0.476 0.079 0.732v0c-0.096 0.206-0.348 0.475-0.755 0.809-0.401 0.337-0.935 0.569-1.602 0.697-0.665 0.122-1.414-0.013-2.249-0.404z" fill="#0023ff" data-fill-palette-color="accent"></path><path d="M190.032 44.217v0c-1.023-0.96-1.54-2.002-1.552-3.126-0.002-1.124 0.527-2.25 1.586-3.379v0c0.748-0.797 1.628-1.509 2.641-2.135v0c0.43-0.257 0.84-0.528 1.229-0.812 0.39-0.295 0.747-0.615 1.072-0.961v0c0.847-0.903 1.12-1.746 0.818-2.53v0c-0.268-0.79-0.247-1.35 0.063-1.681v0c0.306-0.326 0.75-0.523 1.332-0.589 0.592-0.067 1.192-0.018 1.8 0.147 0.614 0.17 1.126 0.448 1.537 0.834v0c1.169 1.097 0.859 2.598-0.93 4.504v0c-0.579 0.617-1.161 1.141-1.745 1.574-0.58 0.437-1.154 0.832-1.722 1.186v0c-0.391 0.256-0.764 0.523-1.12 0.802-0.356 0.279-0.649 0.541-0.881 0.787v0c-0.965 1.028-0.946 2.013 0.058 2.954v0c0.943 0.885 2.294 1.209 4.052 0.974 1.769-0.236 3.764-1.005 5.985-2.307v0l0.521-0.615c0.92-1.061 1.828-1.671 2.723-1.831 0.905-0.16 1.746 0.125 2.523 0.854v0c0.677 0.635 0.813 1.169 0.409 1.601v0c-0.137 0.145-0.336 0.307-0.598 0.486-0.262 0.179-0.589 0.371-0.982 0.578v0c-0.916 0.564-1.845 1.207-2.785 1.928-0.941 0.711-1.748 1.425-2.421 2.142v0c-0.753 0.802-1.252 1.58-1.495 2.332-0.244 0.752-0.114 1.539 0.388 2.36v0c0.167 0.194 0.263 0.388 0.289 0.582 0.026 0.204-0.095 0.448-0.364 0.735v0c-0.461 0.492-1.119 0.78-1.972 0.865-0.854 0.085-1.669-0.237-2.447-0.966v0c-1.495-1.403-1.251-3.16 0.731-5.271v0c0.348-0.371 0.899-0.897 1.65-1.578v0l-0.032-0.087c-4.41 2.106-7.864 1.987-10.361-0.357z" fill="#0023ff" data-fill-palette-color="accent"></path><path d="M211.268 70.276v0c-0.401-0.928-0.27-1.475 0.392-1.641v0c1.234-0.196 2.468-0.445 3.702-0.746 1.227-0.298 2.371-0.676 3.432-1.135v0c1.364-0.589 2.328-1.107 2.892-1.553 0.558-0.443 0.895-0.859 1.012-1.247 0.126-0.384 0.166-0.813 0.118-1.287v0c-0.001-0.21 0.031-0.414 0.094-0.614 0.073-0.196 0.226-0.345 0.46-0.446v0c0.36-0.156 0.819-0.185 1.377-0.089 0.565 0.093 1.121 0.332 1.67 0.717 0.551 0.391 0.971 0.921 1.261 1.591v0c0.379 0.878 0.338 1.615-0.124 2.211-0.462 0.597-1.182 1.106-2.16 1.529v0c-0.65 0.281-1.401 0.53-2.251 0.748-0.856 0.22-1.635 0.403-2.336 0.549v0l-0.005 0.092c1.544-0.173 3.028-0.207 4.451-0.103 1.424 0.104 2.685 0.432 3.785 0.983 1.091 0.548 1.882 1.39 2.373 2.526v0c0.502 1.162 0.503 2.248 0.003 3.258-0.494 1.008-1.501 1.84-3.023 2.498v0l-0.852 0.369c1.897 0.072 3.608 0.415 5.132 1.03 1.516 0.611 2.602 1.678 3.26 3.199v0c0.535 1.238 0.54 2.385 0.016 3.444-0.521 1.049-1.403 1.843-2.647 2.38v0c-0.486 0.21-0.98 0.36-1.481 0.449-0.492 0.093-0.986 0.171-1.482 0.236v0c-0.457 0.07-0.925 0.149-1.404 0.236-0.486 0.09-0.946 0.229-1.382 0.417v0c-1.553 0.671-2.276 1.763-2.17 3.276v0c0.003 0.216-0.02 0.395-0.072 0.537-0.045 0.139-0.184 0.259-0.417 0.36v0c-0.227 0.098-0.592 0.173-1.094 0.225-0.498 0.043-1.026-0.059-1.582-0.305-0.55-0.249-0.993-0.762-1.328-1.539v0c-0.434-1.004-0.399-1.937 0.105-2.799 0.498-0.86 1.315-1.535 2.451-2.026v0c0.568-0.246 1.185-0.448 1.85-0.609 0.662-0.166 1.31-0.297 1.945-0.39v0c0.569-0.088 1.106-0.189 1.611-0.303 0.499-0.111 0.919-0.24 1.26-0.387v0c0.619-0.267 1.006-0.611 1.162-1.031 0.156-0.42 0.129-0.872-0.081-1.358v0c-0.357-0.827-0.937-1.457-1.739-1.89-0.802-0.433-1.725-0.723-2.77-0.871-1.039-0.15-2.129-0.193-3.27-0.127v0c-0.216 0.123-0.511 0.273-0.884 0.45-0.367 0.174-0.693 0.322-0.977 0.444v0c-0.486 0.21-1.014 0.401-1.585 0.573-0.57 0.172-1.075 0.243-1.514 0.216v0c-0.58 0.011-1.112-0.119-1.595-0.39-0.481-0.264-0.867-0.731-1.156-1.4v0c-0.123-0.284-0.183-0.58-0.182-0.888 0.008-0.311 0.142-0.522 0.401-0.634v0c0.101-0.044 0.593-0.163 1.475-0.357 0.874-0.198 1.938-0.474 3.194-0.829 1.252-0.361 2.447-0.788 3.583-1.279v0c1.238-0.535 2.04-1.035 2.408-1.501 0.362-0.464 0.432-0.951 0.211-1.463v0c-0.278-0.644-0.811-1.14-1.599-1.489-0.794-0.346-1.721-0.575-2.78-0.687-1.057-0.105-2.126-0.134-3.207-0.086-1.078 0.054-2.062 0.153-2.951 0.297v0l-0.427 0.184c-0.953 0.412-1.854 0.487-2.702 0.224-0.848-0.263-1.467-0.846-1.857-1.749z" fill="#0023ff" data-fill-palette-color="accent"></path><path d="M7.551 159.991v0c-0.526-1.507-0.477-2.882 0.145-4.126 0.622-1.244 1.81-2.172 3.563-2.784v0c1.253-0.437 2.589-0.63 4.006-0.578 1.413 0.061 2.781 0.381 4.105 0.961 1.331 0.578 2.526 1.414 3.585 2.509 1.059 1.095 1.873 2.457 2.442 4.087v0c0.526 1.507 0.714 2.883 0.566 4.129-0.142 1.244-0.651 2.019-1.527 2.325v0c-0.227 0.079-0.532 0.156-0.914 0.231-0.38 0.081-0.697 0.123-0.951 0.125v0c-0.226-0.001-0.445-0.045-0.658-0.132-0.21-0.08-0.355-0.233-0.434-0.46v0c-0.034-0.097-0.061-0.299-0.08-0.606v0c-0.56 0.086-1.102 0.192-1.627 0.316-0.518 0.122-1.027 0.271-1.527 0.446v0c-0.955 0.333-1.751 0.775-2.39 1.325-0.641 0.544-0.899 1.275-0.775 2.194v0c0.025 0.239 0.014 0.447-0.034 0.623-0.056 0.173-0.247 0.316-0.572 0.429v0c-0.279 0.097-0.654 0.152-1.123 0.163-0.478 0.007-0.953-0.123-1.425-0.388-0.474-0.272-0.837-0.771-1.091-1.499v0c-0.342-0.981-0.248-1.859 0.283-2.634 0.531-0.775 1.462-1.395 2.793-1.86v0c-1.472-0.251-2.775-0.762-3.91-1.531-1.144-0.774-1.961-1.862-2.45-3.265zM11.888 159.833v0c0.349 1 0.969 1.775 1.86 2.323 0.897 0.547 1.898 0.868 3.002 0.964v0c0.693 0.064 1.425 0.045 2.198-0.057 0.769-0.093 1.512-0.24 2.229-0.439v0c0.054-0.492 0.047-1.036-0.022-1.631-0.063-0.597-0.199-1.198-0.41-1.802v0c-0.535-1.533-1.43-2.637-2.686-3.314-1.247-0.672-2.546-0.773-3.897-0.301v0c-1.007 0.351-1.722 0.91-2.147 1.677-0.418 0.765-0.46 1.625-0.127 2.58z" fill="#0023ff" data-fill-palette-color="accent"></path><path d="M23.806 209.538v0c-0.473-0.582-0.68-1.176-0.622-1.781 0.054-0.611 0.526-1.295 1.416-2.053v0c0.933-0.793 2.29-1.664 4.071-2.614 1.781-0.95 3.639-1.918 5.575-2.905v0c-1.296 0.095-2.486-0.023-3.572-0.356-1.095-0.334-2.043-0.995-2.845-1.983v0c-1.006-1.239-1.375-2.556-1.108-3.951 0.268-1.405 1.166-2.727 2.693-3.967v0c1.009-0.819 2.126-1.469 3.349-1.948 1.218-0.475 2.476-0.726 3.774-0.752 1.299-0.027 2.563 0.232 3.793 0.775 1.23 0.543 2.339 1.424 3.327 2.641v0c0.62 0.764 1.09 1.556 1.411 2.376 0.316 0.815 0.47 1.572 0.461 2.27v0c-0.012 0.586-0.106 1.021-0.282 1.306-0.181 0.28-0.415 0.536-0.704 0.771v0c-0.598 0.486-1.378 1.026-2.339 1.62-0.956 0.59-1.923 1.145-2.901 1.664-0.983 0.524-1.824 0.967-2.522 1.33v0c-1.124 0.602-2.273 1.287-3.448 2.055-1.17 0.764-2.208 1.514-3.116 2.251v0c-0.662 0.538-1.165 1.048-1.509 1.53-0.343 0.483-0.45 1.083-0.319 1.801v0c0.041 0.171 0.061 0.332 0.06 0.483 0.009 0.152-0.059 0.287-0.203 0.404v0c-0.166 0.134-0.497 0.266-0.995 0.396-0.492 0.125-1.043 0.107-1.652-0.054-0.61-0.151-1.208-0.587-1.793-1.309zM31.917 196.122v0c0.468 0.577 1.118 1.006 1.95 1.288 0.831 0.282 1.749 0.392 2.753 0.329v0c0.727-0.076 1.482-0.242 2.266-0.498 0.78-0.261 1.54-0.657 2.28-1.186v0c-0.103-0.465-0.299-1.051-0.588-1.755-0.283-0.709-0.694-1.395-1.231-2.057v0c-0.988-1.217-2.09-1.892-3.304-2.023-1.215-0.121-2.305 0.211-3.271 0.996v0c-0.87 0.707-1.371 1.525-1.502 2.455-0.14 0.929 0.075 1.746 0.647 2.451z" fill="#0023ff" data-fill-palette-color="accent"></path><path d="M58.941 225.296v0c-1.146-0.669-1.843-1.522-2.09-2.559-0.241-1.033 0.006-2.179 0.741-3.438v0c0.524-0.897 1.189-1.743 1.997-2.538v0c0.338-0.32 0.658-0.655 0.957-1.006 0.294-0.354 0.554-0.724 0.78-1.11v0c0.59-1.01 0.664-1.846 0.223-2.51v0c-0.413-0.671-0.511-1.191-0.296-1.559v0c0.212-0.362 0.582-0.636 1.112-0.82 0.524-0.188 1.086-0.27 1.686-0.246 0.596 0.03 1.126 0.18 1.589 0.45v0c1.307 0.763 1.337 2.211 0.092 4.343v0c-0.402 0.689-0.829 1.296-1.279 1.822-0.441 0.523-0.884 1.009-1.33 1.458v0c-0.31 0.313-0.599 0.638-0.868 0.974-0.274 0.334-0.491 0.637-0.651 0.91v0c-0.669 1.146-0.443 2.047 0.68 2.703v0c1.057 0.617 2.374 0.634 3.95 0.049 1.574-0.594 3.25-1.726 5.03-3.395v0l0.344-0.671c0.622-1.174 1.334-1.929 2.135-2.266 0.792-0.334 1.625-0.246 2.499 0.265v0c0.754 0.441 0.991 0.901 0.71 1.382v0c-0.094 0.16-0.24 0.35-0.44 0.568-0.209 0.221-0.47 0.47-0.784 0.749v0c-0.728 0.714-1.449 1.499-2.164 2.356-0.719 0.863-1.312 1.695-1.781 2.497v0c-0.524 0.897-0.819 1.716-0.886 2.457-0.064 0.751 0.22 1.451 0.853 2.1v0c0.197 0.139 0.327 0.299 0.39 0.478 0.072 0.177 0.014 0.426-0.174 0.747v0c-0.323 0.552-0.87 0.958-1.641 1.216-0.766 0.262-1.586 0.137-2.459-0.373v0c-1.675-0.978-1.822-2.649-0.442-5.013v0c0.243-0.416 0.641-1.016 1.195-1.8v0l-0.051-0.077c-3.621 2.872-6.83 3.491-9.627 1.857z" fill="#0023ff" data-fill-palette-color="accent"></path><path d="M99.438 241.089v0c-1.573-0.268-2.754-0.976-3.542-2.122-0.788-1.146-1.026-2.635-0.714-4.465v0c0.223-1.309 0.7-2.57 1.431-3.785 0.736-1.207 1.678-2.25 2.826-3.129 1.149-0.886 2.458-1.527 3.928-1.926 1.47-0.398 3.057-0.452 4.759-0.161v0c1.573 0.268 2.869 0.769 3.888 1.5 1.021 0.725 1.453 1.546 1.297 2.461v0c-0.04 0.237-0.12 0.541-0.239 0.912-0.112 0.372-0.229 0.669-0.351 0.893v0c-0.11 0.197-0.255 0.368-0.433 0.512-0.171 0.145-0.376 0.198-0.613 0.157v0c-0.102-0.017-0.291-0.092-0.569-0.223v0c-0.195 0.532-0.365 1.058-0.51 1.577-0.143 0.513-0.259 1.03-0.348 1.553v0c-0.17 0.997-0.168 1.908 0.004 2.732 0.166 0.824 0.682 1.404 1.546 1.74v0c0.221 0.094 0.398 0.204 0.529 0.331 0.124 0.133 0.157 0.369 0.1 0.708v0c-0.05 0.292-0.183 0.646-0.401 1.062-0.226 0.422-0.568 0.775-1.029 1.059-0.467 0.283-1.08 0.36-1.84 0.231v0c-1.024-0.175-1.747-0.682-2.168-1.522-0.422-0.84-0.514-1.954-0.277-3.344v0c-0.932 1.167-2.009 2.061-3.232 2.683-1.23 0.627-2.578 0.816-4.042 0.566zM101.396 237.216v0c1.044 0.178 2.022 0.01 2.933-0.505 0.912-0.521 1.677-1.242 2.295-2.162v0c0.391-0.575 0.729-1.226 1.013-1.952 0.29-0.718 0.521-1.439 0.694-2.163v0c-0.405-0.285-0.884-0.542-1.439-0.769-0.553-0.234-1.145-0.405-1.776-0.512v0c-1.6-0.273-3-0.023-4.199 0.749-1.191 0.767-1.907 1.855-2.148 3.265v0c-0.179 1.051-0.036 1.948 0.431 2.69 0.468 0.736 1.2 1.189 2.196 1.359z" fill="#0023ff" data-fill-palette-color="accent"></path><path d="M139.731 242.084v0c-0.421 0.071-0.769 0.052-1.045-0.054-0.275-0.1-0.4-0.327-0.376-0.68v0c0.102-1.175 0.154-2.362 0.155-3.562 0.001-1.2-0.09-2.339-0.271-3.418v0c-0.234-1.391-0.492-2.39-0.776-2.997-0.278-0.616-0.58-1.025-0.907-1.229-0.333-0.195-0.721-0.325-1.164-0.39v0c-0.196-0.044-0.376-0.122-0.542-0.234-0.164-0.105-0.266-0.276-0.306-0.513v0c-0.062-0.366 0.013-0.797 0.223-1.293 0.218-0.49 0.56-0.945 1.026-1.365 0.468-0.413 1.044-0.678 1.729-0.793v0c0.889-0.149 1.565 0.054 2.027 0.612 0.456 0.558 0.768 1.336 0.936 2.332v0c0.291-1.13 0.735-2.062 1.33-2.797 0.588-0.734 1.408-1.189 2.459-1.365v0c0.705-0.119 1.322-0.058 1.851 0.181 0.52 0.233 0.841 0.706 0.96 1.418v0c0.119 0.705-0.001 1.406-0.358 2.101-0.352 0.687-0.765 1.07-1.24 1.149v0c-0.075 0.013-0.168 0.018-0.28 0.016-0.106-0.01-0.209-0.062-0.309-0.157v0c-0.41-0.364-0.862-0.504-1.358-0.421v0c-0.766 0.129-1.354 0.74-1.763 1.834-0.409 1.094-0.49 2.523-0.242 4.289v0c0.138 0.653 0.267 1.319 0.388 1.995 0.129 0.683 0.219 1.18 0.272 1.493v0c0.163 0.97 0.03 1.815-0.401 2.536-0.43 0.721-1.103 1.158-2.018 1.312z" fill="#0023ff" data-fill-palette-color="accent"></path><path d="M166.586 212.884v0c-0.682 0.295-1.316 0.349-1.9 0.163-0.593-0.19-1.056-0.632-1.387-1.328v0c-0.33-0.757-0.367-1.482-0.111-2.176 0.253-0.7 0.758-1.215 1.516-1.545v0c0.707-0.307 1.351-0.362 1.932-0.166 0.581 0.196 1.025 0.647 1.331 1.354v0c0.318 0.732 0.362 1.439 0.13 2.121-0.238 0.685-0.741 1.21-1.511 1.577zM175.322 231.122v0c-0.72 0.343-1.377 0.412-1.97 0.207-0.599-0.202-1.127-0.781-1.582-1.737v0c-0.263-0.553-0.468-1.118-0.614-1.696-0.14-0.581-0.259-1.16-0.359-1.738v0c-0.084-0.608-0.203-1.21-0.358-1.806-0.152-0.606-0.377-1.222-0.676-1.85v0c-0.204-0.428-0.463-0.812-0.776-1.15-0.307-0.341-0.712-0.51-1.214-0.507v0c-0.39-0.02-0.74-0.066-1.049-0.14-0.316-0.071-0.541-0.249-0.678-0.535v0c-0.16-0.335-0.176-0.769-0.049-1.302 0.127-0.533 0.383-1.059 0.768-1.578 0.382-0.525 0.85-0.919 1.403-1.182v0c0.602-0.287 1.114-0.34 1.535-0.16 0.43 0.184 0.806 0.492 1.127 0.926 0.327 0.431 0.611 0.898 0.85 1.4v0c0.367 0.77 0.663 1.551 0.888 2.343 0.231 0.789 0.436 1.522 0.613 2.199v0c0.12 0.507 0.248 0.96 0.385 1.36 0.134 0.409 0.281 0.781 0.441 1.116v0c0.287 0.602 0.644 0.984 1.072 1.146 0.437 0.165 0.981 0.252 1.633 0.262v0c0.267 0.017 0.459 0.147 0.574 0.389v0c0.092 0.192 0.139 0.539 0.142 1.041 0.006 0.492-0.146 1.022-0.455 1.588-0.306 0.557-0.856 1.025-1.651 1.404z" fill="#0023ff" data-fill-palette-color="accent"></path><path d="M203.486 211.72v0c-0.959 0.918-1.97 1.354-3.034 1.306-1.059-0.052-2.093-0.605-3.102-1.658v0c-0.718-0.75-1.349-1.622-1.892-2.617v0c-0.215-0.413-0.449-0.812-0.704-1.197-0.259-0.38-0.544-0.732-0.853-1.055v0c-0.809-0.845-1.593-1.146-2.352-0.905v0c-0.759 0.212-1.285 0.164-1.58-0.143v0c-0.29-0.303-0.451-0.735-0.483-1.295-0.037-0.555 0.039-1.118 0.226-1.688 0.192-0.565 0.482-1.033 0.87-1.404v0c1.093-1.047 2.493-0.678 4.201 1.105v0c0.552 0.576 1.019 1.153 1.4 1.731 0.382 0.568 0.727 1.127 1.036 1.678v0c0.215 0.384 0.448 0.752 0.699 1.103 0.245 0.356 0.477 0.648 0.696 0.876v0c0.918 0.959 1.847 0.989 2.786 0.089v0c0.884-0.847 1.262-2.108 1.132-3.784-0.139-1.676-0.766-3.599-1.882-5.769v0l-0.55-0.516c-0.958-0.921-1.488-1.813-1.592-2.676-0.103-0.854 0.21-1.63 0.941-2.329v0c0.631-0.604 1.139-0.705 1.524-0.303v0c0.128 0.134 0.27 0.327 0.426 0.579 0.155 0.261 0.323 0.581 0.504 0.959v0c0.487 0.896 1.043 1.806 1.671 2.729 0.632 0.928 1.269 1.728 1.911 2.398v0c0.718 0.75 1.425 1.259 2.119 1.528 0.704 0.268 1.455 0.187 2.253-0.244v0c0.188-0.152 0.377-0.233 0.567-0.243 0.19-0.02 0.414 0.104 0.671 0.372v0c0.442 0.462 0.682 1.1 0.718 1.913 0.041 0.808-0.304 1.562-1.035 2.262v0c-1.401 1.342-3.048 1.024-4.941-0.954v0c-0.333-0.348-0.8-0.895-1.402-1.643v0l-0.088 0.028c1.766 4.271 1.479 7.526-0.861 9.767z" fill="#0023ff" data-fill-palette-color="accent"></path><path d="M228.568 179.082v0c-0.372 0.881-0.831 1.146-1.377 0.796v0c-0.939-0.71-1.915-1.388-2.928-2.032-1.012-0.644-2.022-1.179-3.029-1.604v0c-1.299-0.549-2.28-0.869-2.942-0.962-0.669-0.096-1.178-0.057-1.528 0.116-0.341 0.17-0.657 0.424-0.95 0.764v0c-0.142 0.142-0.304 0.252-0.487 0.331-0.179 0.089-0.38 0.086-0.602-0.007v0c-0.342-0.144-0.665-0.441-0.968-0.891-0.299-0.44-0.497-0.979-0.593-1.617-0.093-0.629-0.005-1.26 0.262-1.894v0c0.353-0.836 0.885-1.291 1.595-1.364 0.71-0.073 1.531 0.087 2.463 0.48v0c0.608 0.257 1.267 0.606 1.977 1.047 0.71 0.442 1.342 0.854 1.896 1.238v0l0.07-0.06c-1.127-0.939-2.12-1.929-2.978-2.971-0.862-1.036-1.461-2.11-1.797-3.223-0.345-1.109-0.291-2.202 0.164-3.28v0c0.466-1.103 1.207-1.816 2.225-2.14 1.015-0.318 2.245-0.172 3.69 0.439v0l0.808 0.341c-1.196-1.341-2.079-2.733-2.649-4.176-0.579-1.439-0.564-2.881 0.046-4.326v0c0.498-1.179 1.279-1.931 2.343-2.259 1.064-0.327 2.182-0.243 3.354 0.252v0c0.469 0.198 0.896 0.434 1.28 0.709 0.388 0.283 0.766 0.574 1.133 0.87v0c0.346 0.258 0.707 0.526 1.083 0.805 0.378 0.272 0.776 0.496 1.194 0.672v0c1.464 0.618 2.681 0.397 3.652-0.664v0c0.148-0.139 0.284-0.239 0.406-0.299 0.132-0.064 0.305-0.05 0.521 0.041v0c0.222 0.094 0.512 0.298 0.871 0.614 0.362 0.31 0.637 0.736 0.827 1.279 0.192 0.536 0.132 1.172-0.179 1.907v0c-0.404 0.957-1.063 1.545-1.976 1.763-0.92 0.216-1.919 0.097-2.996-0.358v0c-0.539-0.227-1.079-0.512-1.622-0.853-0.549-0.344-1.061-0.706-1.536-1.085v0c-0.437-0.326-0.859-0.628-1.264-0.904-0.409-0.27-0.772-0.471-1.089-0.605v0c-0.589-0.249-1.076-0.29-1.459-0.124-0.393 0.17-0.687 0.486-0.883 0.949v0c-0.332 0.786-0.382 1.593-0.149 2.423 0.223 0.833 0.627 1.654 1.212 2.461 0.576 0.811 1.257 1.584 2.044 2.319v0c0.232 0.068 0.529 0.171 0.889 0.309 0.36 0.137 0.677 0.263 0.949 0.378v0c0.463 0.195 0.937 0.433 1.423 0.713 0.489 0.274 0.869 0.568 1.139 0.884v0c0.386 0.394 0.644 0.843 0.775 1.347 0.137 0.506 0.071 1.079-0.199 1.719v0c-0.112 0.266-0.278 0.499-0.496 0.697-0.209 0.195-0.438 0.241-0.685 0.137v0c-0.095-0.04-0.498-0.296-1.21-0.769-0.711-0.472-1.6-1.019-2.667-1.641-1.06-0.619-2.129-1.157-3.205-1.612v0c-1.179-0.498-2.044-0.721-2.596-0.67-0.561 0.054-0.944 0.326-1.15 0.813v0c-0.26 0.615-0.249 1.306 0.032 2.074 0.28 0.768 0.731 1.548 1.352 2.341 0.612 0.796 1.292 1.546 2.04 2.25 0.742 0.701 1.451 1.311 2.128 1.829v0l0.4 0.168c0.906 0.383 1.548 0.949 1.926 1.698 0.378 0.749 0.385 1.555 0.02 2.417z" fill="#0023ff" data-fill-palette-color="accent"></path><path d="M0 121.807c0-5.585 4.528-10.113 10.113-10.113 5.585 0 10.113 4.528 10.113 10.113 0 5.585-4.528 10.113-10.113 10.113-5.585 0-10.113-4.528-10.113-10.113z" fill="#0023ff" data-fill-palette-color="accent"></path><path d="M224.205 121.807c0-5.585 4.528-10.113 10.113-10.113 5.585 0 10.113 4.528 10.113 10.113 0 5.585-4.528 10.113-10.113 10.113-5.585 0-10.113-4.528-10.113-10.113z" fill="#0023ff" data-fill-palette-color="accent"></path></g><g id="text-1"></g></svg></g></svg></g><g></g></svg></g><defs></defs></svg><rect width="248.48447714634852" height="247.2" fill="none" stroke="none" visibility="hidden"></rect></g></svg></g></svg>