<?xml version="1.0" encoding="iso-8859-1"?>
<!-- Uploaded to: SVG Repo, www.svgrepo.com, Generator: SVG Repo Mixer Tools -->
<svg fill="#000000" height="800px" width="800px" version="1.1" id="Layer_1" xmlns="http://www.w3.org/2000/svg" xmlns:xlink="http://www.w3.org/1999/xlink" 
	 viewBox="0 0 512.001 512.001" xml:space="preserve">
<g>
	<g>
		<path d="M507.766,258.425c4.9-17.723,8.602-80.529-7.053-84.857c-11.192-3.094-29.242,24.528-40.42,47.009
			c-14.953-19.824-36.735-42.535-46.946-37.641c-14.648,7.021,0.069,68.189,8.016,84.772c2.984,6.226,7.43,11.206,12.595,14.628
			c-16.702-1.312-32.177-7.715-44.72-18.878c-27.527-24.491-37.802-67.419-28.93-120.877c7.494-45.162-1.229-81.429-23.932-99.498
			c-15.486-12.325-35.965-14.618-56.19-6.288c-6.902,2.843-13.719,7.854-20.478,15.062l-72.634-29.359
			c-8.525-3.446-18.228,0.671-21.673,9.196c-3.445,8.525,0.672,18.227,9.196,21.673l5.144,2.08l-54.069,133.767l-4.115-1.664
			c-8.526-3.447-18.227,0.671-21.673,9.196s0.671,18.227,9.196,21.673l4.115,1.664L28.035,430.769l-5.144-2.08
			c-8.526-3.446-18.227,0.671-21.673,9.196c-3.446,8.525,0.671,18.228,9.196,21.673L84.5,489.504
			c8.52,3.445,18.227-0.668,21.673-9.196c3.445-8.525-0.672-18.228-9.196-21.673l-5.145-2.08l61.445-152.014
			c4.56,17.359,16.962,32.438,34.844,39.665c29.742,12.023,64.198-1.862,76.579-32.492c12.184-30.141-2.347-64.395-32.492-76.579
			c-7.964-3.22-16.334-4.645-24.999-4.215c4.731-17.762,12.032-43.313,21.194-69.487c12.052-34.432,22.902-57.657,32.188-73.308
			l4.042,1.634c2.044,0.827,4.155,1.218,6.233,1.218c6.585,0,12.821-3.933,15.44-10.414c2.763-6.836,0.654-14.423-4.682-18.94
			c2.716-2.168,5.065-3.5,7.018-4.304c12.74-5.248,24.782-4.135,33.913,3.131c15.975,12.716,21.902,42.06,15.856,78.498
			c-10.162,61.247,2.649,111.355,36.073,141.093c22.271,19.815,51.901,28.474,83.562,23.306l-1.933,4.784
			c-19.861-0.856-39.81,10.567-48.068,30.993c-10.272,25.416,1.979,54.296,27.398,64.57c25.601,10.348,54.372-2.168,64.57-27.397
			c3.445-8.525-0.672-18.227-9.196-21.673c-8.523-3.446-18.227,0.67-21.673,9.196c-3.375,8.354-12.868,12.38-21.223,9.005
			c-8.353-3.377-12.383-12.869-9.004-21.224c3.375-8.353,12.865-12.382,21.223-9.005c4.093,1.656,8.676,1.616,12.74-0.109
			c4.065-1.725,7.278-4.993,8.933-9.087l15.976-39.525c2.331-5.767,1.191-12.066-2.423-16.61
			C501.075,272.831,505.586,266.309,507.766,258.425z M219.729,266.004c13.08,5.287,19.388,20.152,14.101,33.232
			c-5.345,13.224-20.239,19.351-33.232,14.101c-13.05-5.275-19.376-20.183-14.101-33.232
			C191.844,266.876,206.739,260.754,219.729,266.004z M207.449,154.1c-7.751,22.146-14.139,43.581-18.842,60.551l-18.175-7.346
			l54.069-133.767l15.312,6.189C228.993,98.544,218.246,123.255,207.449,154.1z"/>
	</g>
</g>
</svg>